<?xml version="1.0" encoding="UTF-8"?>
<!DOCTYPE svg PUBLIC "-//W3C//DTD SVG 1.1//EN" "http://www.w3.org/Graphics/SVG/1.1/DTD/svg11.dtd">
<!-- Creator: CorelDRAW -->
<svg xmlns="http://www.w3.org/2000/svg" xml:space="preserve" width="2048px" height="2048px" style="shape-rendering:geometricPrecision; text-rendering:geometricPrecision; image-rendering:optimizeQuality; fill-rule:evenodd; clip-rule:evenodd"
viewBox="0 0 2048 2048"
 xmlns:xlink="http://www.w3.org/1999/xlink">
 <defs>
  <style type="text/css">
   <![CDATA[
    .fil1 {fill:none}
    .fil0 {fill:#212121;fill-rule:nonzero}
   ]]>
  </style>
 </defs>
 <g id="Layer_x0020_1">
  <metadata id="CorelCorpID_0Corel-Layer"/>
  <path class="fil0" d="M826.178 1457.81c17.6728,0 32.0008,-14.328 32.0008,-32.0008 0,-17.6728 -14.328,-32.0008 -32.0008,-32.0008l-85.2698 0 0 -296.114c0,-42.7276 17.5028,-81.5942 45.7004,-109.791 28.1965,-28.1977 67.063,-45.7004 109.791,-45.7004l127.6 0 127.6 0c42.7276,0 81.5942,17.5028 109.791,45.7004 28.1977,28.1965 45.7004,67.063 45.7004,109.791l0 296.114 -84.5658 0c-17.6728,0 -32.0008,14.328 -32.0008,32.0008 0,17.6728 14.328,32.0008 32.0008,32.0008l116.567 0c17.6728,0 32.0008,-14.328 32.0008,-32.0008l0 -328.115c0,-60.3922 -24.6839,-115.274 -64.4516,-155.041 -39.7666,-39.7677 -94.6477,-64.4516 -155.041,-64.4516l-127.6 0 -127.6 0c-60.3934,0 -115.274,24.6839 -155.041,64.4516 -39.7677,39.7666 -64.4516,94.6489 -64.4516,155.041l0 328.115c0,17.6728 14.328,32.0008 32.0008,32.0008l117.271 0z"/>
  <path class="fil0" d="M1024 392.087c64.2024,0 122.332,26.0268 164.41,68.1048 42.078,42.078 68.1048,100.207 68.1048,164.41 0,64.2024 -26.0268,122.332 -68.1048,164.41 -42.078,42.078 -100.207,68.1048 -164.41,68.1048 -64.2024,0 -122.332,-26.0268 -164.41,-68.1048 -42.078,-42.078 -68.1048,-100.207 -68.1048,-164.41 0,-64.2024 26.0268,-122.332 68.1048,-164.41 42.078,-42.078 100.207,-68.1048 164.41,-68.1048zm119.159 113.355c-30.4925,-30.4925 -72.6225,-49.3536 -119.159,-49.3536 -46.5366,0 -88.6666,18.861 -119.159,49.3536 -30.4925,30.4925 -49.3536,72.6225 -49.3536,119.159 0,46.5366 18.861,88.6666 49.3536,119.159 30.4925,30.4925 72.6225,49.3536 119.159,49.3536 46.5366,0 88.6666,-18.861 119.159,-49.3536 30.4925,-30.4925 49.3536,-72.6225 49.3536,-119.159 0,-46.5366 -18.861,-88.6666 -49.3536,-119.159z"/>
  <path class="fil0" d="M1307.42 993.516c-15.4642,8.49095 -21.1158,27.9118 -12.6248,43.376 8.49095,15.4642 27.9118,21.1158 43.376,12.6248 9.02953,-4.97244 18.4961,-8.79922 28.2024,-11.2937 9.33544,-2.39882 19.4516,-3.67677 30.2209,-3.67677l104.746 0 104.746 0c67.0512,0 121.91,54.8599 121.91,121.911l0 237.346 -226.656 0 -162.151 0c-17.6728,0 -32.0008,14.328 -32.0008,32.0008 0,17.6728 14.328,32.0008 32.0008,32.0008l162.151 0 258.657 0c17.6728,0 32.0008,-14.328 32.0008,-32.0008l0 -269.347c0,-102.252 -83.6599,-185.913 -185.912,-185.913l-104.746 0 -104.746 0c-15.502,0 -30.9213,2.05866 -45.9721,5.92796 -15.4583,3.97323 -29.9445,9.74292 -43.2024,17.0433z"/>
  <path class="fil0" d="M1501.34 561.393c54.2847,0 103.437,22.0087 139.015,57.5859 35.5772,35.5796 57.5859,84.73 57.5859,139.016 0,54.2847 -22.0087,103.436 -57.5859,139.016 -35.5796,35.5772 -84.73,57.5859 -139.015,57.5859 -54.2847,0 -103.435,-22.0087 -139.015,-57.5859 -35.5772,-35.5796 -57.5859,-84.7312 -57.5859,-139.016 0,-54.2859 22.0087,-103.436 57.5859,-139.016 35.5772,-35.5772 84.73,-57.5859 139.015,-57.5859zm93.7642 102.836c-23.9929,-23.9929 -57.1453,-38.8347 -93.7642,-38.8347 -36.6189,0 -69.7713,14.8417 -93.7642,38.8347 -23.9929,23.9929 -38.8347,57.1453 -38.8347,93.7654 0,36.6189 14.8417,69.7725 38.8347,93.7654 23.9929,23.9929 57.1453,38.8347 93.7642,38.8347 36.6189,0 69.7713,-14.8417 93.7642,-38.8347 23.9929,-23.9929 38.8347,-57.1465 38.8347,-93.7654 0,-36.6201 -14.8417,-69.7725 -38.8347,-93.7654z"/>
  <path class="fil0" d="M1056 1341.74c0,-17.6728 -14.328,-32.0008 -32.0008,-32.0008 -17.6728,0 -32.0008,14.328 -32.0008,32.0008l0 169.305c0,17.6728 14.328,32.0008 32.0008,32.0008 17.6728,0 32.0008,-14.328 32.0008,-32.0008l0 -169.305z"/>
  <path class="fil0" d="M1108.65 1458.39c17.6728,0 32.0008,-14.328 32.0008,-32.0008 0,-17.6728 -14.328,-32.0008 -32.0008,-32.0008l-169.305 0c-17.6728,0 -32.0008,14.328 -32.0008,32.0008 0,17.6728 14.328,32.0008 32.0008,32.0008l169.305 0z"/>
  <path class="fil0" d="M1024 1196.87c126.761,0 229.523,102.761 229.523,229.521 0,126.761 -102.762,229.523 -229.523,229.523 -126.761,0 -229.523,-102.762 -229.523,-229.523 0,-63.3756 25.6914,-120.757 67.2284,-162.293 41.5359,-41.5359 98.9174,-67.2284 162.294,-67.2284zm165.521 229.521c0,-91.4138 -74.1071,-165.52 -165.521,-165.52 -45.7111,0 -87.0934,18.5268 -117.044,48.4772 -29.9504,29.9492 -48.4772,71.3327 -48.4772,117.043 0,91.4138 74.1071,165.521 165.521,165.521 91.4138,0 165.521,-74.1071 165.521,-165.521z"/>
  <path class="fil0" d="M709.827 1049.52c15.4642,8.49095 34.8851,2.83937 43.376,-12.6248 8.49095,-15.4642 2.83937,-34.8851 -12.6248,-43.376 -13.2579,-7.3004 -27.7441,-13.0701 -43.2024,-17.0433 -15.0508,-3.86929 -30.4701,-5.92796 -45.9721,-5.92796l-104.746 0 -104.746 0c-102.252,0 -185.912,83.6611 -185.912,185.913l0 269.347c0,17.6728 14.328,32.0008 32.0008,32.0008l258.657 0 162.151 0c17.6728,0 32.0008,-14.328 32.0008,-32.0008 0,-17.6728 -14.328,-32.0008 -32.0008,-32.0008l-162.151 0 -226.656 0 0 -237.346c0,-67.0512 54.8587,-121.911 121.91,-121.911l104.746 0 104.746 0c10.7693,0 20.8854,1.27795 30.2209,3.67677 9.70631,2.49449 19.1728,6.32126 28.2024,11.2937z"/>
  <path class="fil0" d="M546.657 625.394c-36.6189,0 -69.7713,14.8417 -93.7642,38.8347 -23.9929,23.9929 -38.8347,57.1453 -38.8347,93.7654 0,36.6189 14.8417,69.7725 38.8347,93.7654 23.9929,23.9929 57.1453,38.8347 93.7642,38.8347 36.6189,0 69.7713,-14.8417 93.7642,-38.8347 23.9929,-23.9929 38.8347,-57.1465 38.8347,-93.7654 0,-36.6201 -14.8417,-69.7725 -38.8347,-93.7654 -23.9929,-23.9929 -57.1453,-38.8347 -93.7642,-38.8347zm-139.015 -6.41575c35.5772,-35.5772 84.73,-57.5859 139.015,-57.5859 54.2847,0 103.437,22.0087 139.015,57.5859 35.5772,35.5796 57.5859,84.73 57.5859,139.016 0,54.2847 -22.0087,103.436 -57.5859,139.016 -35.5796,35.5772 -84.73,57.5859 -139.015,57.5859 -54.2847,0 -103.435,-22.0087 -139.015,-57.5859 -35.5772,-35.5796 -57.5859,-84.7312 -57.5859,-139.016 0,-54.2859 22.0087,-103.436 57.5859,-139.016z"/>
 </g>
 <rect class="fil1" width="2048" height="2048"/>
</svg>
